<?xml version="1.0" encoding="UTF-8"?>
<svg width="509px" height="73px" viewBox="0 0 509 73" version="1.1" xmlns="http://www.w3.org/2000/svg" xmlns:xlink="http://www.w3.org/1999/xlink">
    <!-- Generator: Sketch 64 (93537) - https://sketch.com -->
    <title>PolemicPub</title>
    <desc>Created with Sketch.</desc>
    <g id="Logos-&amp;-icons" stroke="none" stroke-width="1" fill="none" fill-rule="evenodd">
        <g id="Artboard" transform="translate(-82.000000, -95.000000)" fill-rule="nonzero">
            <g id="PolemicPub" transform="translate(82.115625, 95.400000)">
                <path d="M30.4734375,70.6 L30.4734375,67.1890625 C27.5755208,67.1890625 25.3721354,66.9838542 23.8632812,66.5734375 C22.3544271,66.1630208 21.3377604,65.2911458 20.8132813,63.9578125 C20.2888021,62.6244792 20.0265625,60.6015625 20.0265625,57.8890625 L20.0265625,57.8890625 L20.0265625,41.515625 C20.7494792,41.7822917 21.7091146,42.0033854 22.9054688,42.1789063 C24.1018229,42.3544271 25.2317708,42.4421875 26.2953125,42.4421875 C29.6463542,42.4421875 32.9041667,42.1088542 36.06875,41.4421875 C39.2333333,40.7755208 42.065625,39.6421875 44.565625,38.0421875 C47.065625,36.4421875 49.0489583,34.3151042 50.515625,31.6609375 C51.9822917,29.0067708 52.715625,25.725 52.715625,21.815625 C52.715625,18.3770833 52.021875,15.5533854 50.634375,13.3445313 C49.246875,11.1356771 47.3768229,9.42083333 45.0242188,8.2 C42.6716146,6.97916667 39.9804688,6.12395833 36.9507813,5.634375 C33.9210938,5.14479167 30.7744792,4.9 27.5109375,4.9 L27.5109375,4.9 L0.2734375,4.9 L0.2734375,8.3109375 C3.57864583,8.3109375 5.86380208,8.76536458 7.12890625,9.67421875 C8.39401042,10.5830729 9.0265625,12.5567708 9.0265625,15.5953125 L9.0265625,15.5953125 L9.0265625,57.5203125 C9.0265625,60.2994792 8.83177083,62.3776042 8.4421875,63.7546875 C8.05260417,65.1317708 7.21927083,66.0484375 5.9421875,66.5046875 C4.66510417,66.9609375 2.684375,67.1890625 0,67.1890625 L0,67.1890625 L0,70.6 L30.4734375,70.6 Z M25.3953125,37.8046875 C24.2473958,37.8046875 23.2148438,37.7494792 22.2976563,37.6390625 C21.3804688,37.5286458 20.6234375,37.4401042 20.0265625,37.3734375 L20.0265625,37.3734375 L20.0265625,9.484375 C21.0723958,9.35104167 22.0364583,9.25625 22.91875,9.2 C23.8010417,9.14375 24.7213542,9.115625 25.6796875,9.115625 C30.9953125,9.115625 34.8908854,10.2901042 37.3664063,12.6390625 C39.8419271,14.9880208 41.0796875,18.4401042 41.0796875,22.9953125 C41.0796875,26.8828125 40.4882813,29.8992188 39.3054688,32.0445313 C38.1226563,34.1898438 36.3664063,35.6861979 34.0367188,36.5335938 C31.7070313,37.3809896 28.8265625,37.8046875 25.3953125,37.8046875 Z M77.5838501,71.6 C82.2119751,71.6 86.2296834,70.628125 89.6369751,68.684375 C93.0442668,66.740625 95.6927043,63.8528646 97.5822876,60.0210938 C99.4718709,56.1893229 100.416663,51.4630208 100.416663,45.8421875 C100.416663,38.5057292 98.4333293,32.7145833 94.4666626,28.46875 C90.4999959,24.2229167 84.9041626,22.1 77.6791626,22.1 C72.8541626,22.1 68.7164022,23.1325521 65.2658813,25.1976563 C61.8153605,27.2627604 59.1778605,30.1223958 57.3533813,33.7765625 C55.5289022,37.4307292 54.6166626,41.659375 54.6166626,46.4625 C54.6166626,54.71875 56.626298,60.9723958 60.6455688,65.2234375 C64.6648397,69.4744792 70.3109334,71.6 77.5838501,71.6 Z M77.9526001,67.315625 C74.0015584,67.3614583 70.9848918,65.6169271 68.9026001,62.0820313 C66.8203084,58.5471354 65.7791626,52.9390625 65.7791626,45.2578125 C65.7791626,39.0682292 66.7721313,34.3471354 68.7580688,31.0945313 C70.7440063,27.8419271 73.5421834,26.215625 77.1526001,26.215625 C81.2619751,26.215625 84.3174438,28.0419271 86.3190063,31.6945313 C88.3205688,35.3471354 89.3213501,40.2614583 89.3213501,46.4375 C89.3213501,51.584375 88.9065063,55.6807292 88.0768188,58.7265625 C87.2471313,61.7723958 85.9934855,63.9653646 84.3158813,65.3054688 C82.6382772,66.6455729 80.5171834,67.315625 77.9526001,67.315625 Z M130.490369,70.6 L130.490369,67.353125 C128.090369,67.353125 126.344535,67.1515625 125.252869,66.7484375 C124.161202,66.3453125 123.461983,65.6231771 123.155212,64.5820313 C122.848442,63.5408854 122.695056,62.0598958 122.695056,60.1390625 L122.695056,60.1390625 L122.695056,7.10542736e-15 L118.899744,7.10542736e-15 L104.910681,3.3734375 L104.910681,6.484375 C104.910681,6.484375 105.225525,6.45104167 105.855212,6.384375 C106.4849,6.31770833 107.229952,6.284375 108.090369,6.284375 C109.349744,6.284375 110.399483,6.48958333 111.239587,6.9 C112.079692,7.31041667 112.499744,8.528125 112.499744,10.553125 L112.499744,10.553125 L112.499744,60.1546875 C112.499744,61.9984375 112.37266,63.4424479 112.118494,64.4867188 C111.864327,65.5309896 111.232035,66.2697917 110.221619,66.703125 C109.211202,67.1364583 107.605994,67.353125 105.405994,67.353125 L105.405994,67.353125 L105.405994,70.6 L130.490369,70.6 Z M156.522058,71.63125 C159.47935,71.63125 162.008777,71.2382812 164.110339,70.4523438 C166.211902,69.6664063 168.011121,68.6033854 169.507996,67.2632813 C171.004871,65.9231771 172.325183,64.3768229 173.468933,62.6242188 C174.612683,60.8716146 175.649662,59.0510417 176.579871,57.1625 L176.579871,57.1625 L174.457996,55.6375 C173.391329,57.015625 172.231694,58.2671875 170.979089,59.3921875 C169.726485,60.5171875 168.229089,61.4145833 166.486902,62.084375 C164.744714,62.7541667 162.528308,63.0890625 159.837683,63.0890625 C157.040808,63.0890625 154.505652,62.4023438 152.232214,61.0289063 C149.958777,59.6554688 148.162423,57.5195313 146.843152,54.6210938 C145.6386,51.9746943 144.983953,48.6455281 144.879209,44.6335952 L144.871375,44.285 L176.184558,44.284375 C175.986779,37.3042763 174.23013,31.91613 170.914612,28.1199359 L170.642371,27.815625 C167.150704,24.0052083 162.535079,22.1 156.795496,22.1 C152.780912,22.1 149.105131,23 145.768152,24.8 C142.431173,26.6 139.765548,29.3270833 137.771277,32.98125 C135.777006,36.6354167 134.779871,41.2838542 134.779871,46.9265625 C134.779871,52.2390625 135.697319,56.7398438 137.532214,60.4289063 C139.36711,64.1179688 141.922319,66.9072917 145.197839,68.796875 C148.47336,70.6864583 152.2481,71.63125 156.522058,71.63125 Z M144.965058,40.237625 C145.233891,36.1487917 146.040391,32.9372917 147.384558,30.603125 C149.064766,27.6854167 151.712162,26.2265625 155.326746,26.2265625 C157.537162,26.2265625 159.319454,26.8617188 160.673621,28.1320313 C162.027787,29.4023438 163.04185,31.1049479 163.715808,33.2398438 C164.389766,35.3747396 164.749662,37.7177083 164.795496,40.26875 L164.795496,40.26875 L144.962375,40.269 L144.965058,40.237625 Z M227.083742,30.6315938 C226.228409,28.3666771 224.987409,26.4735938 223.360742,24.9523438 C221.327409,23.0507813 218.589909,22.1 215.148242,22.1 C211.726367,22.1 208.775065,22.9377604 206.294336,24.6132813 C203.813607,26.2888021 201.290951,28.2614583 198.726367,30.53125 L198.726367,30.53125 L198.294375,30.532 L198.295117,22.4 L194.948242,22.4 L181.532617,25.3 L181.532617,28.5796875 C181.532617,28.5796875 181.788607,28.5463542 182.300586,28.4796875 C182.812565,28.4130208 183.456576,28.3796875 184.232617,28.3796875 C185.632617,28.3796875 186.677148,28.6742188 187.366211,29.2632813 C188.055273,29.8523438 188.399805,31.0578125 188.399805,32.8796875 L188.399805,32.8796875 L188.399805,60.153125 C188.399805,62.0895833 188.260482,63.5796875 187.981836,64.6234375 C187.70319,65.6671875 187.080534,66.3830729 186.113867,66.7710938 C185.147201,67.1591146 183.586784,67.353125 181.432617,67.353125 L181.432617,67.353125 L181.432617,70.6 L205.999805,70.6 L205.999805,67.353125 C203.891471,67.353125 202.314388,67.1591146 201.268555,66.7710938 C200.222721,66.3830729 199.51569,65.6901042 199.147461,64.6921875 C198.779232,63.6942708 198.595117,62.2723958 198.595117,60.4265625 L198.595117,60.4265625 L198.594375,35.31 L198.612842,35.2912109 C199.256966,34.6704427 199.960803,34.0525228 200.724353,33.4374512 L201.189648,33.06875 C202.449544,32.0864583 203.832878,31.2479167 205.339648,30.553125 C206.846419,29.8583333 208.449284,29.5109375 210.148242,29.5109375 C212.481576,29.5109375 214.366471,30.2643229 215.80293,31.7710938 C217.239388,33.2778646 217.957617,36.2385417 217.957617,40.653125 L217.957617,40.653125 L217.957617,59.1265625 C217.957617,61.3119792 217.813086,63.0013021 217.524023,64.1945313 C217.234961,65.3877604 216.583398,66.2125 215.569336,66.66875 C214.555273,67.125 212.911263,67.353125 210.637305,67.353125 L210.637305,67.353125 L210.637305,70.6 L235.599805,70.6 L235.599805,67.353125 C233.347721,67.353125 231.698763,67.1135417 230.65293,66.634375 C229.607096,66.1552083 228.928971,65.3138021 228.618555,64.1101563 C228.308138,62.9065104 228.15293,61.2453125 228.15293,59.1265625 L228.15293,59.1265625 L228.15293,35.4421875 L228.15293,35.4421875 L228.123375,35.134 L228.331383,34.9518519 C229.469886,33.9729167 230.708852,33.0141204 232.048281,32.075463 L232.726367,31.6078125 C234.785742,30.2098958 236.894596,29.5109375 239.05293,29.5109375 C240.65293,29.5109375 242.066211,29.8380208 243.292773,30.4921875 C244.519336,31.1463542 245.48418,32.2997396 246.187305,33.9523438 C246.89043,35.6049479 247.241992,37.975 247.241992,41.0625 L247.241992,41.0625 L247.241992,59.1265625 C247.241992,61.0838542 247.120117,62.6705729 246.876367,63.8867188 C246.632617,65.1028646 246.026628,65.9846354 245.058398,66.5320313 C244.090169,67.0794271 242.514909,67.353125 240.332617,67.353125 L240.332617,67.353125 L240.332617,70.6 L264.541992,70.6 L264.541992,67.353125 C262.380534,67.353125 260.788607,67.0908854 259.766211,66.5664063 C258.743815,66.0419271 258.100065,65.1664063 257.834961,63.9398438 C257.569857,62.7132813 257.437305,61.1088542 257.437305,59.1265625 L257.437305,59.1265625 L257.437305,39.546875 C257.437305,33.3125 256.202148,28.8460938 253.731836,26.1476563 C251.261523,23.4492188 247.933659,22.1 243.748242,22.1 C240.871159,22.1 238.116732,22.8578125 235.484961,24.3734375 C232.85319,25.8890625 230.212826,27.9822917 227.563867,30.653125 L227.563867,30.653125 L227.091375,30.654 L227.083742,30.6315938 Z M280.72207,15.0734375 C282.750195,15.0734375 284.333529,14.459375 285.47207,13.23125 C286.610612,12.003125 287.179883,10.4859375 287.179883,8.6796875 C287.179883,6.89322917 286.610612,5.40260417 285.47207,4.2078125 C284.333529,3.01302083 282.750195,2.415625 280.72207,2.415625 C278.735612,2.415625 277.167904,3.01822917 276.018945,4.2234375 C274.869987,5.42864583 274.295508,6.92447917 274.295508,8.7109375 C274.295508,10.4963542 274.886654,12.003125 276.068945,13.23125 C277.251237,14.459375 278.802279,15.0734375 280.72207,15.0734375 Z M293.18457,70.6 L293.18457,67.4203125 C290.98457,67.4203125 289.357487,67.2203125 288.30332,66.8203125 C287.249154,66.4203125 286.572852,65.6869792 286.274414,64.6203125 C285.975977,63.5536458 285.826758,62.0536458 285.826758,60.1203125 L285.826758,60.1203125 L285.826758,22.4 L281.837695,22.4 L268.479883,25.2 L268.479883,28.5109375 C268.479883,28.5109375 268.735091,28.4776042 269.245508,28.4109375 C269.755924,28.3442708 270.344466,28.3109375 271.011133,28.3109375 C272.498633,28.3109375 273.64056,28.5609375 274.436914,29.0609375 C275.233268,29.5609375 275.631445,30.8984375 275.631445,33.0734375 L275.631445,33.0734375 L275.631445,60.215625 C275.631445,62.0822917 275.493685,63.54375 275.218164,64.6 C274.942643,65.65625 274.305924,66.3903646 273.308008,66.8023438 C272.310091,67.2143229 270.688216,67.4203125 268.442383,67.4203125 L268.442383,67.4203125 L268.442383,70.6 L293.18457,70.6 Z M318.600635,71.63125 C322.474593,71.63125 325.669385,70.9611979 328.18501,69.6210938 C330.700635,68.2809896 332.796208,66.4635417 334.471729,64.16875 C336.147249,61.8739583 337.62876,59.3510417 338.91626,56.6 L338.91626,56.6 L336.794385,55.1375 C334.654801,57.85625 332.547249,59.8664063 330.471729,61.1679688 C328.396208,62.4695313 325.70376,63.1203125 322.394385,63.1203125 C317.198551,63.1203125 313.455843,61.3020833 311.16626,57.665625 C308.876676,54.0291667 307.731885,49.2302083 307.731885,43.26875 C307.731885,37.6614583 308.724072,33.4007813 310.708447,30.4867188 C312.692822,27.5726563 315.560531,26.115625 319.311572,26.115625 C321.065739,26.115625 322.392822,26.5148438 323.292822,27.3132813 C324.192822,28.1117188 324.887614,29.0932292 325.377197,30.2578125 C325.866781,31.4223958 326.344906,32.5924479 326.811572,33.7679688 C327.278239,34.9434896 327.915739,35.9304688 328.724072,36.7289063 C329.532406,37.5273438 330.733447,37.9265625 332.327197,37.9265625 C333.894906,37.9265625 335.144645,37.4958333 336.076416,36.634375 C337.008187,35.7729167 337.474072,34.4932292 337.474072,32.7953125 C337.474072,29.7984375 336.039958,27.2614583 333.171729,25.184375 C330.303499,23.1072917 326.344385,22.06875 321.294385,22.06875 C316.200635,22.06875 311.907145,23.1510417 308.413916,25.315625 C304.920687,27.4802083 302.280322,30.5013021 300.492822,34.3789063 C298.705322,38.2565104 297.811572,42.796875 297.811572,48 C297.811572,52.7895833 298.648291,56.9570313 300.321729,60.5023438 C301.995166,64.0476563 304.389697,66.7888021 307.505322,68.7257813 C310.620947,70.6627604 314.319385,71.63125 318.600635,71.63125 Z" id="Polemic" fill="#1E293B"></path>
                <path d="M370.348035,70.6 L371.074597,66.7796875 C367.987097,66.7796875 365.73267,66.5690104 364.311316,66.1476563 C362.889962,65.7263021 362.077462,64.8489583 361.873816,63.515625 C361.67017,62.1822917 361.835014,60.1703125 362.368347,57.4796875 L362.368347,57.4796875 L365.602375,41.849 L365.629113,41.8560313 C366.226175,42.0292813 366.913425,42.2014063 367.690863,42.3724063 L368.087097,42.4578125 C369.432931,42.7421875 370.916264,42.884375 372.537097,42.884375 C376.263139,42.884375 379.92017,42.4736979 383.508191,41.6523438 C387.096212,40.8309896 390.331368,39.4932292 393.21366,37.6390625 C396.095951,35.7848958 398.405587,33.3114583 400.142566,30.21875 C401.879545,27.1260417 402.748035,23.3286458 402.748035,18.8265625 C402.748035,15.0828125 401.734753,12.2109375 399.708191,10.2109375 C397.681628,8.2109375 394.999076,6.82578125 391.660535,6.05546875 C388.321993,5.28515625 384.628243,4.9 380.579285,4.9 L380.579285,4.9 L351.668347,4.9 L350.879285,8.7203125 C354.254285,8.7203125 356.514701,9.19583333 357.660535,10.146875 C358.806368,11.0979167 359.049597,13.1453125 358.390222,16.2890625 L358.390222,16.2890625 L349.93241,57.1421875 C349.356368,59.9005208 348.745691,61.9734375 348.100378,63.3609375 C347.455066,64.7484375 346.449076,65.6651042 345.08241,66.1109375 C343.715743,66.5567708 341.681368,66.7796875 338.979285,66.7796875 L338.979285,66.7796875 L338.190222,70.6 L370.348035,70.6 Z M371.583972,37.7109375 C370.317306,37.7109375 369.189441,37.6335938 368.200378,37.4789063 C367.705847,37.4015625 367.249402,37.3352214 366.831042,37.2798828 L366.555375,37.245 L372.243347,9.76875 C373.161186,9.65208333 373.937264,9.56891276 374.571582,9.51923828 L374.834753,9.5 C375.513399,9.45416667 376.323035,9.43125 377.26366,9.43125 C381.699076,9.43125 384.87017,10.3322917 386.776941,12.134375 C388.683712,13.9364583 389.637097,16.6302083 389.637097,20.215625 C389.637097,23.9354167 388.960014,27.0908854 387.605847,29.6820313 C386.251681,32.2731771 384.236837,34.2591146 381.561316,35.6398438 C378.885795,37.0205729 375.560014,37.7109375 371.583972,37.7109375 Z M413.03678,71.7265625 C415.844071,71.7265625 418.357353,71.1510417 420.576624,70 C422.795894,68.8489583 424.744071,67.4200521 426.421155,65.7132813 C428.098238,64.0065104 429.548238,62.28125 430.771155,60.5375 C431.994071,58.79375 432.979488,57.3286458 433.727405,56.1421875 L433.727405,56.1421875 L434.816467,56.1421875 C434.328967,58.1036458 433.915946,59.8388021 433.577405,61.3476563 C433.238863,62.8565104 433.069592,64.3354167 433.069592,65.784375 C433.069592,67.7739583 433.715165,69.2554688 435.006311,70.2289063 C436.297457,71.2023438 438.283134,71.6890625 440.963342,71.6890625 C443.830009,71.6890625 446.246676,71.2346354 448.213342,70.3257813 C450.180009,69.4169271 451.884436,68.1898438 453.326624,66.6445313 C454.768811,65.0992188 456.11803,63.3651042 457.37428,61.4421875 L457.37428,61.4421875 L454.64303,59.4375 C454.516988,59.6052083 454.097717,60.0908854 453.385217,60.8945313 C452.672717,61.6981771 451.808655,62.4700521 450.79303,63.2101563 C449.777405,63.9502604 448.690426,64.3203125 447.532092,64.3203125 C446.732092,64.3203125 446.192509,64.1369792 445.913342,63.7703125 C445.634176,63.4036458 445.494592,63.0203125 445.494592,62.6203125 C445.494592,61.8869792 445.594592,60.9869792 445.794592,59.9203125 C445.994592,58.8536458 446.094592,58.3203125 446.094592,58.3203125 L446.094592,58.3203125 L453.30553,23.3 L441.34303,23.3 L438.078967,38.4109375 C437.637301,40.4213542 436.967249,42.5466146 436.068811,44.7867188 C435.170374,47.0268229 434.114124,49.1994792 432.900061,51.3046875 C431.685999,53.4098958 430.397457,55.3276042 429.034436,57.0578125 C427.671415,58.7880208 426.297717,60.1705729 424.913342,61.2054688 C423.528967,62.2403646 422.209176,62.7578125 420.953967,62.7578125 C420.013342,62.7578125 419.320113,62.3640625 418.87428,61.5765625 C418.428446,60.7890625 418.20553,59.7739583 418.20553,58.53125 C418.20553,57.7666667 418.280269,56.9440104 418.429749,56.0632813 C418.579228,55.1825521 418.716988,54.4895833 418.84303,53.984375 L418.84303,53.984375 L425.932092,23 L421.50553,23 L405.478967,24.1 L405.478967,27.8109375 C405.675842,27.7859375 406.072457,27.7463542 406.668811,27.6921875 C407.265165,27.6380208 407.959696,27.6109375 408.752405,27.6109375 C409.913863,27.6109375 410.772717,27.8679688 411.328967,28.3820313 C411.885217,28.8960938 412.163342,29.5598958 412.163342,30.3734375 C412.163342,30.8890625 412.111519,31.4890625 412.007874,32.1734375 C411.904228,32.8578125 411.800842,33.4526042 411.697717,33.9578125 C411.594592,34.4630208 411.54303,34.715625 411.54303,34.715625 L411.54303,34.715625 L406.489905,56.0890625 C406.23053,57.1765625 405.988603,58.384375 405.764124,59.7125 C405.539644,61.040625 405.427405,62.3083333 405.427405,63.515625 C405.427405,65.8875 405.988603,67.8489583 407.110999,69.4 C408.233394,70.9510417 410.208655,71.7265625 413.03678,71.7265625 Z M478.501233,71.9265625 C483.297066,71.9265625 487.551233,71.1335938 491.263733,69.5476563 C494.976233,67.9617188 498.102535,65.7484375 500.642639,62.9078125 C503.182743,60.0671875 505.116077,56.7153646 506.442639,52.8523438 C507.769202,48.9893229 508.432483,44.771875 508.432483,40.2 C508.432483,34.2 507.063212,29.7622396 504.32467,26.8867188 C501.586129,24.0111979 498.232483,22.5734375 494.263733,22.5734375 C492.512691,22.5734375 490.923108,22.8104167 489.494983,23.284375 C488.066858,23.7583333 486.673889,24.5049479 485.316077,25.5242188 C483.958264,26.5434896 482.47415,27.853125 480.863733,29.453125 L480.863733,29.453125 L480.23717,29.453125 L486.194983,0.1 L481.659045,0.1 L466.34342,1.0734375 L466.34342,4.746875 C466.34342,4.746875 466.73092,4.72421875 467.50592,4.67890625 C468.28092,4.63359375 468.935087,4.6109375 469.46842,4.6109375 C470.46842,4.6109375 471.31842,4.78984375 472.01842,5.14765625 C472.71842,5.50546875 473.06842,6.25104167 473.06842,7.384375 C473.06842,7.984375 473.01842,8.66770833 472.91842,9.434375 C472.81842,10.2010417 472.735087,10.684375 472.66842,10.884375 L472.66842,10.884375 L461.310608,68.2265625 C466.59915,70.6932292 472.329358,71.9265625 478.501233,71.9265625 Z M481.316858,66.5265625 C479.779358,66.5265625 478.321285,66.1395833 476.942639,65.365625 C475.563993,64.5916667 474.541337,63.9046875 473.87467,63.3046875 L473.87467,63.3046875 L478.521545,39.1265625 C479.103837,37.6109375 479.919722,36.0783854 480.969202,34.5289063 C482.018681,32.9794271 483.275712,31.6697917 484.740295,30.6 C486.204879,29.5302083 487.811129,28.9953125 489.559045,28.9953125 C491.270504,28.9953125 492.745764,29.7856771 493.984827,31.3664063 C495.223889,32.9471354 495.84342,35.9197917 495.84342,40.284375 C495.84342,45.225 495.306441,49.6760417 494.232483,53.6375 C493.158525,57.5989583 491.540035,60.7375 489.377014,63.053125 C487.213993,65.36875 484.527275,66.5265625 481.316858,66.5265625 Z" id="Pub" fill="#1D4ED8"></path>
            </g>
        </g>
    </g>
</svg>